<?xml version="1.0" standalone="no"?>
<!DOCTYPE svg PUBLIC "-//W3C//DTD SVG 20010904//EN"
 "http://www.w3.org/TR/2001/REC-SVG-20010904/DTD/svg10.dtd">
<svg version="1.0" xmlns="http://www.w3.org/2000/svg"
 width="500.000000pt" height="500.000000pt" viewBox="0 0 500.000000 500.000000"
 preserveAspectRatio="xMidYMid meet">
<metadata>
Created by potrace 1.14, written by Peter Selinger 2001-2017
</metadata>
<g transform="translate(0.000000,500.000000) scale(0.100000,-0.100000)"
fill="#000000" stroke="none">
<path d="M2668 4983 c-1 -10 -2 -146 -3 -303 -1 -253 -6 -355 -20 -440 -2 -14
-7 -45 -10 -70 -25 -194 -123 -457 -234 -625 -63 -96 -72 -107 -181 -215 -141
-140 -302 -243 -504 -321 -78 -30 -79 -30 -104 -12 -53 40 -106 182 -156 422
-27 124 -32 154 -42 256 -11 104 -25 113 -110 70 -227 -114 -531 -472 -709
-836 -252 -513 -286 -1008 -107 -1539 175 -520 584 -966 1091 -1189 292 -129
577 -184 911 -175 184 5 226 9 388 35 435 71 819 268 1128 577 135 134 201
220 330 423 39 62 123 243 160 345 87 241 126 462 127 727 1 114 -11 335 -18
347 -1 3 -6 34 -9 70 -4 36 -20 127 -37 202 -101 462 -310 896 -613 1268 -208
256 -482 508 -764 703 -158 109 -479 297 -507 297 -3 0 -6 -8 -7 -17z"/>
</g>
</svg>
